<?xml version="1.0" encoding="UTF-8" standalone="no"?>
<!-- Created with Inkscape (http://www.inkscape.org/) -->

<svg
   xmlns:dc="http://purl.org/dc/elements/1.1/"
   xmlns:cc="http://creativecommons.org/ns#"
   xmlns:rdf="http://www.w3.org/1999/02/22-rdf-syntax-ns#"
   xmlns:svg="http://www.w3.org/2000/svg"
   xmlns="http://www.w3.org/2000/svg"
   xmlns:xlink="http://www.w3.org/1999/xlink"
   xmlns:sodipodi="http://sodipodi.sourceforge.net/DTD/sodipodi-0.dtd"
   xmlns:inkscape="http://www.inkscape.org/namespaces/inkscape"
   width="135.46666mm"
   height="135.46666mm"
   viewBox="0 0 135.46666 135.46666"
   version="1.1"
   id="svg8"
   inkscape:version="0.92.4 (5da689c313, 2019-01-14)"
   sodipodi:docname="brave.svg">
  <defs
     id="defs2">
    <linearGradient
       inkscape:collect="always"
       id="linearGradient1744">
      <stop
         style="stop-color:#474747;stop-opacity:1;"
         offset="0"
         id="stop1740" />
      <stop
         style="stop-color:#8a8a8a;stop-opacity:1"
         offset="1"
         id="stop1742" />
    </linearGradient>
    <clipPath
       clipPathUnits="userSpaceOnUse"
       id="clipPath1720">
      <rect
         id="rect1722"
         width="57.489834"
         height="57.489834"
         x="-116.42039"
         y="49.755611"
         rx="18.300694"
         style="opacity:0.42399998;fill:#808080;stroke-width:0.10760129" />
    </clipPath>
    <linearGradient
       inkscape:collect="always"
       xlink:href="#linearGradient1744"
       id="linearGradient1746"
       x1="59.266659"
       y1="279.00833"
       x2="59.266659"
       y2="138.25"
       gradientUnits="userSpaceOnUse" />
  </defs>
  <sodipodi:namedview
     id="base"
     pagecolor="#ffffff"
     bordercolor="#666666"
     borderopacity="1.0"
     inkscape:pageopacity="0.0"
     inkscape:pageshadow="2"
     inkscape:zoom="0.25"
     inkscape:cx="1036.6358"
     inkscape:cy="156.2272"
     inkscape:document-units="mm"
     inkscape:current-layer="g1635"
     showgrid="false"
     inkscape:window-width="1920"
     inkscape:window-height="1018"
     inkscape:window-x="0"
     inkscape:window-y="36"
     inkscape:window-maximized="1"
     fit-margin-top="0"
     fit-margin-left="0"
     fit-margin-right="0"
     fit-margin-bottom="0"
     inkscape:snap-global="false" />
  <metadata
     id="metadata5">
    <rdf:RDF>
      <cc:Work
         rdf:about="">
        <dc:format>image/svg+xml</dc:format>
        <dc:type
           rdf:resource="http://purl.org/dc/dcmitype/StillImage" />
        <dc:title />
      </cc:Work>
    </rdf:RDF>
  </metadata>
  <g
     inkscape:label="Background"
     inkscape:groupmode="layer"
     id="layer1"
     transform="translate(0,-161.53334)"
     style="display:inline">
    <rect
       id="rect12"
       width="135.46666"
       height="135.46666"
       x="0"
       y="161.53334"
       rx="43.122993"
       style="fill:url(#linearGradient1746);stroke-width:0.25354722;fill-opacity:1;stroke:none;stroke-opacity:1" />
  </g>
  <g
     inkscape:groupmode="layer"
     id="layer4"
     inkscape:label="Foreground">
    <g
       id="g1635"
       transform="matrix(2.3563585,0,0,2.3563585,274.32818,-117.24206)"
       clip-path="url(#clipPath1720)">
      <path
         sodipodi:nodetypes="cccccccccccc"
         inkscape:connector-curvature="0"
         id="path1598"
         d="m -93.295268,61.570405 8.598959,-9.354911 14.717447,-0.02363 0.03156,96.539436 c -0.747775,-0.018 -1.023744,-0.0462 -1.992308,-0.58954 l -23.103799,-15.96954 c 0,0 -4.771949,-4.31424 -5.858631,-9.22793 l -10.3471,-39.876489 3.1183,-7.9375 -2.55134,-5.149926 6.89807,-7.417783 c 0,0 3.54353,-3.260044 10.488842,-0.992187 z"
         style="fill:#ff631b;fill-opacity:1;stroke:none;stroke-width:0.26458332px;stroke-linecap:butt;stroke-linejoin:miter;stroke-opacity:1" />
      <path
         sodipodi:nodetypes="ccccccc"
         inkscape:connector-curvature="0"
         id="path1606"
         d="m -69.955237,111.17978 c -0.338336,-0.0338 -0.486805,-0.0361 -0.920009,0.12933 l -12.0493,5.56394 c 0,0 -0.850447,0.96856 0,1.81901 0.850445,0.85044 11.977121,9.56752 11.977121,9.56752 0,0 0.602994,0.63783 0.98097,0.44885 z"
         style="fill:#ffffff;stroke:none;stroke-width:0.26458332px;stroke-linecap:butt;stroke-linejoin:miter;stroke-opacity:1" />
      <path
         sodipodi:nodetypes="cccccccccccc"
         inkscape:connector-curvature="0"
         id="path1598-3"
         d="m -46.887607,61.570406 -8.598958,-9.354911 -14.717448,-0.02363 -0.03156,96.539435 c 0.747776,-0.018 1.023744,-0.0462 1.99231,-0.58954 l 23.103796,-15.96954 c 0,0 4.77195,-4.31424 5.85863,-9.22793 l 10.3471,-39.876488 -3.1183,-7.937501 2.55134,-5.149926 -6.89807,-7.417783 c 0,0 -3.54353,-3.260043 -10.48884,-0.992186 z"
         style="fill:#ff631b;fill-opacity:1;stroke:none;stroke-width:0.26458332px;stroke-linecap:butt;stroke-linejoin:miter;stroke-opacity:1" />
      <path
         id="path1602-6"
         style="fill:#ffffff;stroke:none;stroke-width:0.26458332px;stroke-linecap:butt;stroke-linejoin:miter;stroke-opacity:1"
         d="m -49.974338,102.81706 c 0,0 3.49628,3.96875 -0.99219,8.97693 v 0 c 0,0 -2.17336,2.88207 -3.96875,2.43322 -1.79539,-0.44884 -3.89788,-1.5119 -3.89788,-1.5119 -0.16536,0 -5.03181,-2.48047 -5.1263,-2.59859 -0.0945,-0.11811 -4.84283,-4.44122 -4.84283,-4.44122 0,0 -1.1103,-0.96856 0.21262,-2.40959 l 9.77301,-6.553336 c 0.64645,-0.604335 1.10872,-1.328399 0,-3.073602 l -3.67496,-6.648328 0.0668,-2.372016 c 0,0 0.7684,-1.703842 5.11153,-3.090307 l 9.28762,-3.591433 -8.98694,-0.868626 -6.98242,1.904295 c -1.83747,0.601359 -1.67043,1.770661 -1.67043,1.770661 0,0 2.73952,14.232104 2.6727,15.334591 -0.0668,1.102487 -7.1336,1.844013 -7.1336,1.844013 l 0.0794,-31.48498 c 1.28946,-0.01143 1.527177,0.09404 1.528137,0.09449 0,0 5.38616,1.511905 7.1343,2.267858 1.74814,0.755952 3.30729,0.283482 3.30729,0.283482 l 8.88245,-2.22061 10.58333,14.457588 c 0,0 1.79538,2.645833 -0.28348,5.291667 l -10.96131,11.811759 c 0,0 -1.93713,1.55915 -0.11812,4.393979 m -40.084486,-1e-5 c 0,0 -3.496279,3.96875 0.992187,8.97694 v 0 c 0,0 2.173363,2.88207 3.96875,2.43322 1.795387,-0.44884 3.897879,-1.5119 3.897879,-1.5119 0.165365,0 5.031808,-2.48047 5.126302,-2.59859 0.09449,-0.11812 4.84282,-4.44122 4.84282,-4.44122 0,0 1.110305,-0.96856 -0.212611,-2.4096 l -9.773008,-6.553322 c -0.646457,-0.604336 -1.108719,-1.328399 0,-3.0736 l 3.674956,-6.648329 -0.06682,-2.372017 c 0,0 -0.7684,-1.703843 -5.11153,-3.090305 l -9.287613,-3.591434 8.986938,-0.868626 6.982414,1.904296 c 1.837478,0.601356 1.670435,1.77066 1.670435,1.77066 0,0 -2.739516,14.232103 -2.672696,15.33459 0.06682,1.102487 6.914086,1.844009 6.914086,1.844009 l 0.0794,-31.48498 c -1.289456,-0.01143 -1.466469,0.09404 -1.46743,0.0945 0,0 -5.386161,1.511905 -7.1343,2.267858 -1.74814,0.755952 -3.307292,0.283482 -3.307292,0.283482 l -8.882441,-2.22061 -10.583339,14.457588 c 0,0 -1.79538,2.645833 0.28348,5.291666 l 10.961318,11.811758 c 0,0 1.937128,1.559151 0.118117,4.393976"
         inkscape:connector-curvature="0"
         sodipodi:nodetypes="cccccccccccccccccccccscccccccccccccccccccccccscccscccccc" />
      <path
         sodipodi:nodetypes="ccccccc"
         inkscape:connector-curvature="0"
         id="path1606-7"
         d="m -70.328,111.17978 c 0.338336,-0.0338 0.486807,-0.0361 0.920009,0.12933 l 12.0493,5.56394 c 0,0 0.850447,0.96856 0,1.81901 -0.850445,0.85045 -11.977122,9.56752 -11.977122,9.56752 0,0 -0.602993,0.63783 -0.980969,0.44885 z"
         style="fill:#ffffff;stroke:none;stroke-width:0.26458332px;stroke-linecap:butt;stroke-linejoin:miter;stroke-opacity:1" />
    </g>
  </g>
</svg>
