<?xml version="1.0" encoding="UTF-8" standalone="no"?>
<!-- Created with Inkscape (http://www.inkscape.org/) -->

<svg
   xmlns:dc="http://purl.org/dc/elements/1.1/"
   xmlns:cc="http://creativecommons.org/ns#"
   xmlns:rdf="http://www.w3.org/1999/02/22-rdf-syntax-ns#"
   xmlns:svg="http://www.w3.org/2000/svg"
   xmlns="http://www.w3.org/2000/svg"
   xmlns:sodipodi="http://sodipodi.sourceforge.net/DTD/sodipodi-0.dtd"
   xmlns:inkscape="http://www.inkscape.org/namespaces/inkscape"
   width="135.46666mm"
   height="135.46666mm"
   viewBox="0 0 135.46666 135.46666"
   version="1.1"
   id="svg8"
   inkscape:version="0.92.4 (5da689c313, 2019-01-14)"
   sodipodi:docname="skypeforlinux.svg">
  <defs
     id="defs2">
    <clipPath
       clipPathUnits="userSpaceOnUse"
       id="clipPath1613">
      <rect
         id="rect1615"
         width="35.300488"
         height="35.300488"
         x="6.261291"
         y="6.2218962"
         rx="11.237176"
         style="opacity:0.275;fill:#ff00ff;stroke-width:0.06607043" />
    </clipPath>
  </defs>
  <sodipodi:namedview
     id="base"
     pagecolor="#ffffff"
     bordercolor="#666666"
     borderopacity="1.0"
     inkscape:pageopacity="0.0"
     inkscape:pageshadow="2"
     inkscape:zoom="1.979899"
     inkscape:cx="285.83004"
     inkscape:cy="480.08224"
     inkscape:document-units="mm"
     inkscape:current-layer="layer1"
     showgrid="false"
     inkscape:window-width="1920"
     inkscape:window-height="1027"
     inkscape:window-x="1280"
     inkscape:window-y="28"
     inkscape:window-maximized="1"
     fit-margin-top="0"
     fit-margin-left="0"
     fit-margin-right="0"
     fit-margin-bottom="0" />
  <metadata
     id="metadata5">
    <rdf:RDF>
      <cc:Work
         rdf:about="">
        <dc:format>image/svg+xml</dc:format>
        <dc:type
           rdf:resource="http://purl.org/dc/dcmitype/StillImage" />
        <dc:title />
      </cc:Work>
    </rdf:RDF>
  </metadata>
  <g
     inkscape:label="Background"
     inkscape:groupmode="layer"
     id="layer1"
     transform="translate(0,-161.53334)">
    <rect
       id="rect12"
       width="135.46666"
       height="135.46666"
       x="0"
       y="161.53334"
       rx="43.122993"
       style="fill:#2952ff;stroke-width:0.25354722;fill-opacity:1" />
    <g
       id="g1595"
       transform="matrix(3.8375296,0,0,3.8375296,-24.02789,137.65663)"
       clip-path="url(#clipPath1613)">
      <circle
         id="circle1563"
         r="14.5"
         cy="21.5"
         cx="21.5"
         style="fill:#28a8ea" />
      <circle
         id="circle1565"
         r="14.5"
         cy="42.5"
         cx="42.5"
         style="fill:#28a8ea" />
      <circle
         id="circle1567"
         r="24"
         cy="32"
         cx="32"
         style="fill:#28a8ea" />
      <path
         id="path1569"
         d="m 25.77592,31.54432 a 7.29374,7.29374 0 0 1 -2.28723,-2.415 6.67189,6.67189 0 0 1 -0.78349,-3.3355 5.99471,5.99471 0 0 1 1.41226,-4.03715 8.501,8.501 0 0 1 3.68147,-2.46067 14.21815,14.21815 0 0 1 4.82059,-0.81108 18.72034,18.72034 0 0 1 3.20766,0.24605 11.57926,11.57926 0 0 1 2.22351,0.57416 4.31175,4.31175 0 0 1 1.74061,1.11177 2.25009,2.25009 0 0 1 0.53761,1.49465 2.1653,2.1653 0 0 1 -0.565,1.55841 1.88118,1.88118 0 0 1 -1.42159,0.5924 2.559,2.559 0 0 1 -1.057,-0.23707 19.13418,19.13418 0 0 0 -2.51525,-0.92035 9.13,9.13 0 0 0 -2.42384,-0.3007 5.53217,5.53217 0 0 0 -3.0346,0.77456 2.52514,2.52514 0 0 0 -1.21193,2.26921 2.28147,2.28147 0 0 0 0.62869,1.59478 5.73381,5.73381 0 0 0 1.69507,1.21207 q 1.06626,0.52886 3.18023,1.40349 a 3.29562,3.29562 0 0 1 0.45571,0.18231 22.58883,22.58883 0 0 1 3.9366,2.02313 7.93733,7.93733 0 0 1 2.424,2.4879 6.5598,6.5598 0 0 1 0.87481,3.45388 6.94754,6.94754 0 0 1 -1.21209,4.16482 7.20362,7.20362 0 0 1 -3.38972,2.51531 14.28813,14.28813 0 0 1 -5.09406,0.82934 16.04982,16.04982 0 0 1 -6.94368,-1.31234 3.77906,3.77906 0 0 1 -1.43069,-1.11178 2.49947,2.49947 0 0 1 -0.4648,-1.51289 1.97735,1.97735 0 0 1 0.61043,-1.54015 2.25168,2.25168 0 0 1 1.57647,-0.55589 4.02856,4.02856 0 0 1 1.8407,0.47386 q 1.05675,0.52889 1.66771,0.793 a 8.38192,8.38192 0 0 0 1.43986,0.4556 8.23265,8.23265 0 0 0 1.84963,0.19129 4.93708,4.93708 0 0 0 3.10757,-0.82919 A 2.73661,2.73661 0 0 0 35.9,38.29732 2.41166,2.41166 0 0 0 35.244,36.63863 6.97453,6.97453 0 0 0 33.31222,35.23529 q -1.276,-0.67429 -3.59055,-1.64043 a 22.24428,22.24428 0 0 1 -3.94578,-2.05054"
         inkscape:connector-curvature="0"
         style="fill:#ffffff;fill-rule:evenodd" />
      <path
         id="path1571"
         d="M 26.03,7.73 A 14.15275,14.15275 0 0 0 24.09,7.23 26.07514,26.07514 0 0 0 7.23,24.09 14.15918,14.15918 0 0 0 7.73,26.03 10.98246,10.98246 0 0 0 8.4,27.7 23.94743,23.94743 0 0 1 27.7,8.4 10.9902,10.9902 0 0 0 26.03,7.73 Z"
         inkscape:connector-curvature="0"
         style="opacity:0.1;fill-rule:evenodd" />
      <path
         id="path1573"
         d="M 26.03,7.73 A 25.01918,25.01918 0 0 0 7.73,26.03 10.98246,10.98246 0 0 0 8.4,27.7 23.94743,23.94743 0 0 1 27.7,8.4 10.9902,10.9902 0 0 0 26.03,7.73 Z"
         inkscape:connector-curvature="0"
         style="opacity:0.1;fill-rule:evenodd" />
      <path
         id="path1575"
         d="M 56.27,37.97 A 10.98178,10.98178 0 0 0 55.6,36.3 23.94736,23.94736 0 0 1 36.3,55.6 a 10.984,10.984 0 0 0 1.67,0.67 14.15275,14.15275 0 0 0 1.94,0.5 26.07514,26.07514 0 0 0 16.86,-16.86 14.16142,14.16142 0 0 0 -0.5,-1.94 z"
         inkscape:connector-curvature="0"
         style="opacity:0.1;fill-rule:evenodd" />
      <path
         id="path1577"
         d="M 55.6,36.3 A 23.94736,23.94736 0 0 1 36.3,55.6 10.984,10.984 0 0 0 37.97,56.27 25.01909,25.01909 0 0 0 56.27,37.97 10.98178,10.98178 0 0 0 55.6,36.3 Z"
         inkscape:connector-curvature="0"
         style="opacity:0.1;fill-rule:evenodd" />
    </g>
  </g>
  <g
     inkscape:groupmode="layer"
     id="layer4"
     inkscape:label="Foreground" />
</svg>
