<?xml version="1.0" encoding="UTF-8" standalone="no"?>
<!-- Created with Inkscape (http://www.inkscape.org/) -->

<svg
   xmlns:dc="http://purl.org/dc/elements/1.1/"
   xmlns:cc="http://creativecommons.org/ns#"
   xmlns:rdf="http://www.w3.org/1999/02/22-rdf-syntax-ns#"
   xmlns:svg="http://www.w3.org/2000/svg"
   xmlns="http://www.w3.org/2000/svg"
   xmlns:xlink="http://www.w3.org/1999/xlink"
   xmlns:sodipodi="http://sodipodi.sourceforge.net/DTD/sodipodi-0.dtd"
   xmlns:inkscape="http://www.inkscape.org/namespaces/inkscape"
   width="135.46666mm"
   height="135.46666mm"
   viewBox="0 0 135.46666 135.46666"
   version="1.1"
   id="svg8"
   inkscape:version="0.92.3 (unknown)"
   sodipodi:docname="thunderbird.svg">
  <defs
     id="defs2">
    <linearGradient
       inkscape:collect="always"
       id="linearGradient2048">
      <stop
         style="stop-color:#001f58;stop-opacity:1;"
         offset="0"
         id="stop2044" />
      <stop
         style="stop-color:#00163f;stop-opacity:1"
         offset="1"
         id="stop2046" />
    </linearGradient>
    <linearGradient
       inkscape:collect="always"
       id="linearGradient1966">
      <stop
         style="stop-color:#f2f2f2;stop-opacity:1;"
         offset="0"
         id="stop1962" />
      <stop
         style="stop-color:#afafaf;stop-opacity:1"
         offset="1"
         id="stop1964" />
    </linearGradient>
    <linearGradient
       inkscape:collect="always"
       id="linearGradient1874">
      <stop
         style="stop-color:#166eee;stop-opacity:1;"
         offset="0"
         id="stop1870" />
      <stop
         style="stop-color:#062655;stop-opacity:1"
         offset="1"
         id="stop1872" />
    </linearGradient>
    <linearGradient
       inkscape:collect="always"
       xlink:href="#linearGradient1874"
       id="linearGradient1876"
       x1="-128.46466"
       y1="-9.4872103"
       x2="-117.97582"
       y2="93.27507"
       gradientUnits="userSpaceOnUse"
       gradientTransform="translate(49.979402,94.078874)" />
    <linearGradient
       inkscape:collect="always"
       xlink:href="#linearGradient1966"
       id="linearGradient1968"
       x1="-83.120827"
       y1="169.87761"
       x2="-62.230957"
       y2="112.43661"
       gradientUnits="userSpaceOnUse" />
    <linearGradient
       inkscape:collect="always"
       xlink:href="#linearGradient1966"
       id="linearGradient1978"
       gradientUnits="userSpaceOnUse"
       x1="-83.120827"
       y1="169.87761"
       x2="-62.230957"
       y2="112.43661" />
    <linearGradient
       inkscape:collect="always"
       xlink:href="#linearGradient1966"
       id="linearGradient1980"
       gradientUnits="userSpaceOnUse"
       x1="-83.120827"
       y1="169.87761"
       x2="-62.230957"
       y2="112.43661" />
    <linearGradient
       inkscape:collect="always"
       xlink:href="#linearGradient1966"
       id="linearGradient1982"
       gradientUnits="userSpaceOnUse"
       x1="-83.120827"
       y1="169.87761"
       x2="-62.230957"
       y2="112.43661" />
    <clipPath
       clipPathUnits="userSpaceOnUse"
       id="clipPath2040">
      <rect
         style="display:inline;opacity:0.50700001;fill:#808080;stroke-width:0.16330071"
         rx="27.773979"
         y="-9.9887705"
         x="117.12364"
         height="87.249237"
         width="87.249237"
         id="rect2042" />
    </clipPath>
    <linearGradient
       inkscape:collect="always"
       xlink:href="#linearGradient2048"
       id="linearGradient2050"
       x1="91.63446"
       y1="164.58743"
       x2="91.63446"
       y2="294.48044"
       gradientUnits="userSpaceOnUse" />
  </defs>
  <sodipodi:namedview
     id="base"
     pagecolor="#ffffff"
     bordercolor="#666666"
     borderopacity="1.0"
     inkscape:pageopacity="0.0"
     inkscape:pageshadow="2"
     inkscape:zoom="0.49497475"
     inkscape:cx="118.24732"
     inkscape:cy="510.4665"
     inkscape:document-units="mm"
     inkscape:current-layer="layer1"
     showgrid="false"
     inkscape:window-width="1280"
     inkscape:window-height="960"
     inkscape:window-x="0"
     inkscape:window-y="30"
     inkscape:window-maximized="1"
     fit-margin-top="0"
     fit-margin-left="0"
     fit-margin-right="0"
     fit-margin-bottom="0" />
  <metadata
     id="metadata5">
    <rdf:RDF>
      <cc:Work
         rdf:about="">
        <dc:format>image/svg+xml</dc:format>
        <dc:type
           rdf:resource="http://purl.org/dc/dcmitype/StillImage" />
        <dc:title></dc:title>
      </cc:Work>
    </rdf:RDF>
  </metadata>
  <g
     inkscape:label="Background"
     inkscape:groupmode="layer"
     id="layer1"
     transform="translate(0,-161.53334)"
     style="display:inline">
    <rect
       id="rect12"
       width="135.46666"
       height="135.46666"
       x="0"
       y="161.53334"
       rx="43.122993"
       style="fill:url(#linearGradient2050);stroke-width:0.25354722;fill-opacity:1" />
  </g>
  <g
     inkscape:groupmode="layer"
     id="layer4"
     inkscape:label="Foreground">
    <g
       id="g1908"
       transform="matrix(1.5526401,0,0,1.5526401,-181.85086,15.508967)"
       clip-path="url(#clipPath2040)">
      <g
         id="g1976"
         transform="translate(234.12811,-90.87164)">
        <ellipse
           style="opacity:1;fill:#000000;fill-opacity:1;stroke:none;stroke-width:1;stroke-miterlimit:4;stroke-dasharray:none;stroke-opacity:1"
           id="path1894"
           cx="-97.092636"
           cy="112.78809"
           rx="3.7325146"
           ry="4.8191962" />
        <g
           style="fill:url(#linearGradient1968);fill-opacity:1"
           id="g1960">
          <path
             sodipodi:nodetypes="ccccc"
             inkscape:connector-curvature="0"
             id="path1886"
             d="m -106.77821,111.61008 c 4.15774,1.13393 82.351543,16.20573 82.351543,16.20573 l -20.032739,50.08184 -65.450364,-23.40917 c -1.27932,-14.94329 1.47955,-28.75588 3.13156,-42.8784 z"
             style="fill:url(#linearGradient1978);fill-opacity:1;stroke:#000000;stroke-width:0.26458332px;stroke-linecap:butt;stroke-linejoin:miter;stroke-opacity:1" />
          <path
             sodipodi:nodetypes="ccccc"
             inkscape:connector-curvature="0"
             id="path1884"
             d="m -111.1802,150.54851 c 0.75596,-0.75595 35.104542,-25.13542 35.104542,-25.13542 l 30.33259,52.16072 -61.198152,-21.66103 z"
             style="fill:url(#linearGradient1980);fill-opacity:1;stroke:#000000;stroke-width:0.26458332px;stroke-linecap:butt;stroke-linejoin:miter;stroke-opacity:1" />
          <path
             sodipodi:nodetypes="cccc"
             inkscape:connector-curvature="0"
             id="path1880"
             d="m -105.69954,112.04219 c 0.0945,0.33072 23.034982,35.82957 23.034982,35.82957 l 55.592056,-21.11429 z"
             style="fill:url(#linearGradient1982);fill-opacity:1;stroke:#000000;stroke-width:0.26458332px;stroke-linecap:butt;stroke-linejoin:miter;stroke-opacity:1" />
        </g>
        <path
           style="fill:url(#linearGradient1876);fill-opacity:1;stroke:none;stroke-width:0.26458332px;stroke-linecap:butt;stroke-linejoin:miter;stroke-opacity:1"
           d="m -76.689868,85.961828 c 0,0 -2.17336,2.598586 -1.37016,3.260044 0,0 1.98437,-2.078869 2.83482,-1.606399 l -0.14174,1.606399 1.37016,-0.897693 v 1.370163 c 0,0 15.16629,-2.598586 25.466145,4.441221 33.821331,12.097987 40.219178,66.212207 8.306579,85.697837 0.547343,-0.26538 -5.141028,6.69085 -17.425254,8.74896 0,0 8.315475,-5.19717 7.32329,-5.00818 0,0 -11.48103,6.3311 -17.67039,3.77976 15.90337,-9.08184 20.954589,-19.85903 24.710195,-42.47507 0,0 -4.855701,6.05601 -9.599735,4.35217 0,0 7.984677,-11.42577 -0.50113,-26.72695 l -22.98518,-4.40995 c 0,0 -7.08264,2.20497 -10.08942,5.67948 0,0 -3.20724,1.80407 -4.34313,1.5368 0,0 -1.67044,0.60135 -4.81086,4.67721 0,0 -3.60813,-0.33408 -0.4009,-9.55488 0,0 0.0387,-5.23833 -0.47513,-5.93494 -0.44954,-0.60938 -0.41978,-2.82925 -0.32666,-4.02085 -8.647562,9.44787 -11.448812,17.9348 -6.707812,29.58271 0,0 -3.84936,-0.38352 -5.40286,-3.07291 0,0 -0.3842,13.01268 1.98782,18.92602 l 19.377042,7.04923 4.44335,6.9156 c 0,0 -5.87993,-0.60136 -10.99146,-6.44788 -0.10022,0.16705 2.77293,8.85331 4.63786,13.35386 -28.559862,-11.78799 -35.982052,-59.67456 -1.2478,-81.325111 0,0 5.81138,-10.110863 12.23697,-10.866815 0,0 -3.73251,4.110491 -3.63802,5.480655 0,0 4.25223,-4.724703 5.43341,-4.110491"
           id="path1868"
           inkscape:connector-curvature="0"
           sodipodi:nodetypes="cccccccccccccccccccscccccccccccc" />
      </g>
    </g>
  </g>
</svg>
