<?xml version="1.0" encoding="UTF-8" standalone="no"?>
<!-- Created with Inkscape (http://www.inkscape.org/) -->

<svg
   xmlns:dc="http://purl.org/dc/elements/1.1/"
   xmlns:cc="http://creativecommons.org/ns#"
   xmlns:rdf="http://www.w3.org/1999/02/22-rdf-syntax-ns#"
   xmlns:svg="http://www.w3.org/2000/svg"
   xmlns="http://www.w3.org/2000/svg"
   xmlns:sodipodi="http://sodipodi.sourceforge.net/DTD/sodipodi-0.dtd"
   xmlns:inkscape="http://www.inkscape.org/namespaces/inkscape"
   width="135.46666mm"
   height="135.46666mm"
   viewBox="0 0 135.46666 135.46666"
   version="1.1"
   id="svg8"
   inkscape:version="0.92.3 (unknown)"
   sodipodi:docname="transmission-tray-icon.svg">
  <defs
     id="defs2" />
  <sodipodi:namedview
     id="base"
     pagecolor="#ffffff"
     bordercolor="#666666"
     borderopacity="1.0"
     inkscape:pageopacity="0.0"
     inkscape:pageshadow="2"
     inkscape:zoom="0.49497475"
     inkscape:cx="601.20863"
     inkscape:cy="321.7412"
     inkscape:document-units="mm"
     inkscape:current-layer="g899"
     showgrid="false"
     inkscape:window-width="1600"
     inkscape:window-height="841"
     inkscape:window-x="0"
     inkscape:window-y="25"
     inkscape:window-maximized="1"
     fit-margin-top="0"
     fit-margin-left="0"
     fit-margin-right="0"
     fit-margin-bottom="0"
     inkscape:pagecheckerboard="true"
     inkscape:snap-global="true" />
  <metadata
     id="metadata5">
    <rdf:RDF>
      <cc:Work
         rdf:about="">
        <dc:format>image/svg+xml</dc:format>
        <dc:type
           rdf:resource="http://purl.org/dc/dcmitype/StillImage" />
        <dc:title />
      </cc:Work>
    </rdf:RDF>
  </metadata>
  <g
     inkscape:label="Background"
     inkscape:groupmode="layer"
     id="layer1"
     transform="translate(0,-161.53334)" />
  <g
     inkscape:groupmode="layer"
     id="layer4"
     inkscape:label="Foreground">
    <g
       id="g950"
       transform="matrix(0.67734634,0,0,0.67734634,-304.05125,38.469854)"
       clip-path="none"
       style="fill:#f9f9f9;stroke:none">
      <path
         style="opacity:1;fill:#ffffff;fill-opacity:1;stroke:none;stroke-width:2.56004906;stroke-linecap:round;stroke-linejoin:round;stroke-miterlimit:4;stroke-dasharray:none;stroke-opacity:1"
         d="M 85.541016 150.69922 C 71.358343 150.69922 61.481481 162.20198 59.941406 176.30078 L 27.099609 476.96094 C 25.559535 491.05974 38.516546 502.56055 52.699219 502.56055 L 459.24414 502.56055 C 473.42681 502.56055 486.74681 491.01535 484.84375 476.96094 L 444.13281 176.30078 C 442.22975 162.24639 432.71395 150.69922 418.53125 150.69922 L 303.59961 150.69922 L 303.59961 230.83398 L 323.67578 357.44531 L 374.47656 357.44531 L 248.68359 430.01758 L 137.4043 357.92773 L 185.78711 357.92773 L 208.40039 223.92578 L 208.40039 150.69922 L 85.541016 150.69922 z "
         transform="matrix(0.3906175,0,0,0.3906175,448.88594,-56.794954)"
         id="rect934" />
      <path
         sodipodi:nodetypes="scccsssscccssss"
         inkscape:connector-curvature="0"
         id="rect912"
         d="m 486.37272,-46.97332 31.25565,-1.974313 h 31.25565 31.25565 l 31.25565,1.974313 c 5.45643,0.344669 9.87114,2.185748 9.87114,7.353179 v 10.254682 c 0,5.167431 -4.41471,7.00851 -9.87114,7.353171 l -31.25565,1.974322 h -31.25565 -31.25565 l -31.25565,-1.974322 c -5.45643,-0.344661 -9.87113,-2.18574 -9.87113,-7.353171 v -10.254682 c 0,-5.167431 4.4147,-7.00851 9.87113,-7.353179 z"
         style="opacity:1;fill:#f9f9f9;fill-opacity:1;stroke:none;stroke-width:0.95954633;stroke-linecap:round;stroke-linejoin:round;stroke-miterlimit:4;stroke-dasharray:none;stroke-opacity:1" />
      <g
         id="g893">
        <g
           id="g899"
           transform="matrix(0.78695166,0,0,0.93274924,-29.785234,-3.3269371)">
          <g
             id="g903"
             transform="translate(5.3116435e-7,10.888302)">
            <path
               style="fill:#f9f9f9;fill-opacity:1;stroke:none;stroke-width:0.26458332px;stroke-linecap:butt;stroke-linejoin:miter;stroke-opacity:1"
               d="M 720.78023,30.122405 709.9123,85.26828 h -12.94238 l 34.72856,18.22789 41.99184,-18.41688 H 759.80298 L 749.50203,30.122405 Z"
               id="path918-5"
               inkscape:connector-curvature="0"
               sodipodi:nodetypes="cccccccc" />
            <path
               style="opacity:1;fill:#f9f9f9;fill-opacity:1;stroke:none;stroke-width:1.2328434;stroke-linecap:round;stroke-linejoin:round;stroke-miterlimit:4;stroke-dasharray:none;stroke-opacity:1"
               d="m 729.09542,-65.215652 h 12.4694 c 6.84681,0 8.38792,5.512048 8.38792,12.358852 V 55.091801 c 0,6.846804 -1.54111,12.358852 -8.38792,12.358852 h -12.4694 c -6.8468,0 -8.38791,-5.512048 -8.38791,-12.358852 V -52.8568 c 0,-6.846804 1.54111,-12.358852 8.38791,-12.358852 z"
               id="rect916-5"
               inkscape:connector-curvature="0"
               sodipodi:nodetypes="sssssssss" />
          </g>
        </g>
      </g>
    </g>
  </g>
</svg>
